<svg width="120" height="120" viewBox="0 0 120 120" fill="none" xmlns="http://www.w3.org/2000/svg">
    <path d="M80.8424 47.0887C72.3258 47.0887 63.6566 46.7428 55.5471 44.4839C47.5902 42.2759 40.2844 37.9922 33.7724 33.0369C29.509 29.8114 25.6323 27.2473 20.097 27.6339C14.6773 27.9306 9.49703 29.9642 5.32281 33.4337C-1.71836 39.5388 -0.660153 50.9654 2.15835 58.9936C6.39119 71.0816 19.2729 79.4557 30.2213 84.9299C42.8689 91.2486 56.7681 94.9117 70.6978 97.0281C82.9079 98.88 98.5979 100.233 109.18 92.256C118.897 84.9299 121.563 68.202 119.182 56.9077C118.605 53.5681 116.828 50.5541 114.186 48.4318C107.359 43.446 97.1734 46.7733 89.5014 46.9463C86.6524 47.0073 83.7525 47.0785 80.8424 47.0887Z" fill="#F2F2F2"/>
    <path d="M60.0039 116.819C80.6333 116.819 97.3567 115.775 97.3567 114.489C97.3567 113.202 80.6333 112.158 60.0039 112.158C39.3745 112.158 22.6511 113.202 22.6511 114.489C22.6511 115.775 39.3745 116.819 60.0039 116.819Z" fill="#F2F2F2"/>
    <path d="M82.3993 5.5743C82.95 5.5743 83.3964 5.12786 83.3964 4.57714C83.3964 4.02642 82.95 3.57998 82.3993 3.57998C81.8485 3.57998 81.4021 4.02642 81.4021 4.57714C81.4021 5.12786 81.8485 5.5743 82.3993 5.5743Z" fill="#CFCFCF"/>
    <path d="M17.6349 90.6178C18.1856 90.6178 18.632 90.1713 18.632 89.6206C18.632 89.0699 18.1856 88.6234 17.6349 88.6234C17.0841 88.6234 16.6377 89.0699 16.6377 89.6206C16.6377 90.1713 17.0841 90.6178 17.6349 90.6178Z" fill="#CFCFCF"/>
    <path d="M32.3072 4.99432C32.8579 4.99432 33.3044 4.54788 33.3044 3.99716C33.3044 3.44644 32.8579 3 32.3072 3C31.7565 3 31.3101 3.44644 31.3101 3.99716C31.3101 4.54788 31.7565 4.99432 32.3072 4.99432Z" fill="#CFCFCF"/>
    <path d="M111.5 42.3675C112.051 42.3675 112.497 41.921 112.497 41.3703C112.497 40.8196 112.051 40.3731 111.5 40.3731C110.949 40.3731 110.503 40.8196 110.503 41.3703C110.503 41.921 110.949 42.3675 111.5 42.3675Z" fill="#CFCFCF"/>
    <path d="M56.178 97.7302V102.116" stroke="#BABABA" stroke-linecap="round" stroke-linejoin="round"/>
    <path d="M53.9802 99.928H58.3657" stroke="#BABABA" stroke-linecap="round" stroke-linejoin="round"/>
    <path d="M100.542 23.279V27.6644" stroke="#BABABA" stroke-linecap="round" stroke-linejoin="round"/>
    <path d="M98.3438 25.4768H102.729" stroke="#BABABA" stroke-linecap="round" stroke-linejoin="round"/>
    <path d="M50.2561 17.1027V21.4882" stroke="#BABABA" stroke-linecap="round" stroke-linejoin="round"/>
    <path d="M48.0684 19.2903H52.4437" stroke="#BABABA" stroke-linecap="round" stroke-linejoin="round"/>
    <path d="M25.0524 49.9377C32.4758 49.9377 38.4937 43.9198 38.4937 36.4964C38.4937 29.073 32.4758 23.0551 25.0524 23.0551C17.629 23.0551 11.6111 29.073 11.6111 36.4964C11.6111 43.9198 17.629 49.9377 25.0524 49.9377Z" fill="white" stroke="#BABABA" stroke-linecap="round" stroke-linejoin="round"/>
    <path d="M25.0524 46.2849C30.4584 46.2849 34.8408 41.9024 34.8408 36.4964C34.8408 31.0904 30.4584 26.708 25.0524 26.708C19.6464 26.708 15.2639 31.0904 15.2639 36.4964C15.2639 41.9024 19.6464 46.2849 25.0524 46.2849Z" fill="#D2D2D2"/>
    <path d="M24.7879 42.805L24.7268 41.2584C23.8982 41.2873 23.0777 41.0866 22.356 40.6784L22.6816 39.6609C23.3531 40.0647 24.1269 40.2661 24.91 40.2409C25.9987 40.2409 26.711 39.5388 26.6703 38.6637C26.6296 37.7887 26.0191 37.3206 24.8693 36.9136C23.282 36.3641 22.295 35.6926 22.2441 34.3597C22.2294 33.7358 22.4473 33.1288 22.8554 32.6567C23.2635 32.1847 23.8327 31.8813 24.4521 31.8057L24.3911 30.2591H25.3373L25.3984 31.7447C26.1047 31.7211 26.8052 31.8788 27.4334 32.2025L27.0875 33.22C26.4922 32.8974 25.8204 32.7426 25.144 32.7723C23.9637 32.8232 23.5465 33.5456 23.5669 34.1562C23.5669 34.9498 24.1876 35.3263 25.5408 35.8249C27.1383 36.4048 27.9625 37.168 28.0236 38.5314C28.0366 39.1876 27.8071 39.8256 27.3791 40.3231C26.951 40.8207 26.3544 41.1428 25.7036 41.2278L25.7647 42.8253L24.7879 42.805Z" fill="white"/>
    <path d="M89.3285 79.6389L39.3992 92.1746C38.4095 92.4219 37.3763 92.4405 36.3783 92.2289C35.3803 92.0172 34.4436 91.581 33.6393 90.9533C32.8351 90.3256 32.1844 89.5229 31.7367 88.6062C31.2891 87.6894 31.0561 86.6827 31.0557 85.6625V31.7854L87.4155 17.642C87.9972 17.4967 88.6042 17.4859 89.1907 17.6102C89.7771 17.7345 90.3276 17.9907 90.8003 18.3595C91.2729 18.7282 91.6554 19.1997 91.9187 19.7383C92.1821 20.2769 92.3193 20.8683 92.3199 21.4678V75.8232C92.3184 76.7018 92.0232 77.5546 91.4811 78.246C90.939 78.9374 90.1813 79.4277 89.3285 79.6389Z" fill="#D2D2D2"/>
    <path d="M31.0557 32.1415H101.539C102.056 32.1415 102.568 32.2433 103.045 32.4412C103.523 32.6391 103.957 32.9292 104.323 33.2948C104.689 33.6605 104.979 34.0946 105.177 34.5723C105.374 35.0501 105.476 35.5621 105.476 36.0792V90.6788C105.476 91.1959 105.374 91.708 105.177 92.1857C104.979 92.6635 104.689 93.0976 104.323 93.4632C103.957 93.8289 103.523 94.1189 103.045 94.3168C102.568 94.5147 102.056 94.6166 101.539 94.6166H35.7973C34.5397 94.6166 33.3337 94.117 32.4444 93.2278C31.5552 92.3386 31.0557 91.1325 31.0557 89.875V32.1415Z" fill="white" stroke="#BABABA" stroke-linecap="round" stroke-linejoin="round"/>
    <path d="M95.5556 67.734C97.9608 67.734 99.9106 65.7842 99.9106 63.379C99.9106 60.9739 97.9608 59.0241 95.5556 59.0241C93.1505 59.0241 91.2007 60.9739 91.2007 63.379C91.2007 65.7842 93.1505 67.734 95.5556 67.734Z" fill="#D2D2D2"/>
    </svg>
    