<svg width="120" height="120" viewBox="0 0 120 120" fill="none" xmlns="http://www.w3.org/2000/svg">
    <rect width="120" height="120" fill="white" />
    <path
        d="M80.8461 46.2078C72.325 46.2078 63.6612 45.8714 55.5479 43.6086C47.4345 41.3459 40.3201 37.1159 33.7662 32.1623C29.5057 28.9312 25.6121 26.3729 20.0877 26.7602C14.6725 27.0459 9.49355 29.0688 5.3185 32.5292C-1.72462 38.6448 -0.654394 50.0912 2.15878 58.1128C6.38873 70.1911 19.2417 78.5796 30.2191 84.0531C42.8682 90.3725 56.72 94.0419 70.6942 96.1518C82.9254 98.0068 98.5915 99.3523 109.171 91.3816C118.895 84.0531 121.566 67.3269 119.181 56.0233C118.588 52.7031 116.81 49.7112 114.176 47.6042C107.357 42.62 97.1645 45.953 89.4996 46.116C86.6457 46.1262 83.751 46.1976 80.8461 46.2078Z"
        fill="#F2F2F2" />
    <path
        d="M104.483 16.2312H16.3468C13.8249 16.2312 11.7805 18.2756 11.7805 20.7975V83.839C11.7805 86.3609 13.8249 88.4053 16.3468 88.4053H104.483C107.005 88.4053 109.049 86.3609 109.049 83.839V20.7975C109.049 18.2756 107.005 16.2312 104.483 16.2312Z"
        fill="white" stroke="#BABABA" stroke-linecap="round" stroke-linejoin="round" />
    <path d="M15.3989 81.6884H102.414" stroke="#F2F2F2" stroke-linecap="round"
        stroke-linejoin="round" />
    <path d="M15.3989 70.2726H102.414" stroke="#F2F2F2" stroke-linecap="round"
        stroke-linejoin="round" />
    <path d="M15.3989 58.8671H102.414" stroke="#F2F2F2" stroke-linecap="round"
        stroke-linejoin="round" />
    <path d="M15.3989 47.4513H102.414" stroke="#F2F2F2" stroke-linecap="round"
        stroke-linejoin="round" />
    <path d="M15.3989 36.0355H102.414" stroke="#F2F2F2" stroke-linecap="round"
        stroke-linejoin="round" />
    <path d="M15.3989 24.6197H102.414" stroke="#F2F2F2" stroke-linecap="round"
        stroke-linejoin="round" />
    <path
        d="M32.431 32.0502H26.7027C25.3179 32.0502 24.1953 33.1728 24.1953 34.5576V79.7926C24.1953 81.1774 25.3179 82.2999 26.7027 82.2999H32.431C33.8158 82.2999 34.9384 81.1774 34.9384 79.7926V34.5576C34.9384 33.1728 33.8158 32.0502 32.431 32.0502Z"
        fill="#D2D2D2" />
    <path
        d="M52.9998 51.6507H47.2716C45.8868 51.6507 44.7642 52.7732 44.7642 54.158V79.7926C44.7642 81.1774 45.8868 82.3 47.2716 82.3H52.9998C54.3846 82.3 55.5072 81.1774 55.5072 79.7926V54.158C55.5072 52.7732 54.3846 51.6507 52.9998 51.6507Z"
        fill="#D2D2D2" />
    <path
        d="M73.5582 37.3096H67.8299C66.4451 37.3096 65.3225 38.4322 65.3225 39.817V79.7824C65.3225 81.1672 66.4451 82.2898 67.8299 82.2898H73.5582C74.943 82.2898 76.0656 81.1672 76.0656 79.7824V39.817C76.0656 38.4322 74.943 37.3096 73.5582 37.3096Z"
        fill="#D2D2D2" />
    <path
        d="M94.1168 58.6632H88.3885C87.0037 58.6632 85.8811 59.7858 85.8811 61.1706V79.7824C85.8811 81.1672 87.0037 82.2898 88.3885 82.2898H94.1168C95.5016 82.2898 96.6242 81.1672 96.6242 79.7824V61.1706C96.6242 59.7858 95.5016 58.6632 94.1168 58.6632Z"
        fill="#D2D2D2" />
    <path
        d="M24.7051 54.6371L30.678 54.4027L47.4041 71.5977L63.4066 57.0222L80.8462 62.7606L97.6743 52.0176"
        stroke="#BABABA" stroke-width="1.1" stroke-linecap="round" stroke-linejoin="round" />
    <path d="M35.937 94.1846V98.5674" stroke="#BABABA" stroke-linecap="round"
        stroke-linejoin="round" />
    <path d="M33.7456 96.376H38.1284" stroke="#BABABA" stroke-linecap="round"
        stroke-linejoin="round" />
    <path d="M114.329 36.5044V40.8872" stroke="#BABABA" stroke-linecap="round"
        stroke-linejoin="round" />
    <path d="M112.137 38.6958H116.52" stroke="#BABABA" stroke-linecap="round"
        stroke-linejoin="round" />
    <path d="M4.33984 15.2731V19.6457" stroke="#BABABA" stroke-linecap="round"
        stroke-linejoin="round" />
    <path d="M2.14844 17.4645H6.53128" stroke="#BABABA" stroke-linecap="round"
        stroke-linejoin="round" />
    <path
        d="M6.18467 75.053C6.73634 75.053 7.18355 74.6058 7.18355 74.0541C7.18355 73.5024 6.73634 73.0552 6.18467 73.0552C5.63301 73.0552 5.18579 73.5024 5.18579 74.0541C5.18579 74.6058 5.63301 75.053 6.18467 75.053Z"
        fill="#CFCFCF" />
    <path
        d="M54.0086 5.99776C54.5603 5.99776 55.0075 5.55055 55.0075 4.99888C55.0075 4.44722 54.5603 4 54.0086 4C53.457 4 53.0098 4.44722 53.0098 4.99888C53.0098 5.55055 53.457 5.99776 54.0086 5.99776Z"
        fill="#CFCFCF" />
    <path
        d="M64.2728 115.936C84.904 115.936 101.629 114.895 101.629 113.612C101.629 112.328 84.904 111.288 64.2728 111.288C43.6416 111.288 26.9167 112.328 26.9167 113.612C26.9167 114.895 43.6416 115.936 64.2728 115.936Z"
        fill="#F2F2F2" />
    <path
        d="M105.431 29.1453C111.966 29.1453 117.265 23.8472 117.265 17.3116C117.265 10.776 111.966 5.47793 105.431 5.47793C98.8953 5.47793 93.5972 10.776 93.5972 17.3116C93.5972 23.8472 98.8953 29.1453 105.431 29.1453Z"
        fill="#D2D2D2" />
    <path d="M100.283 12.1643L110.568 22.4589" stroke="white" stroke-width="1.1"
        stroke-linecap="round" stroke-linejoin="round" />
    <path d="M110.568 12.1643L100.283 22.4589" stroke="white" stroke-width="1.1"
        stroke-linecap="round" stroke-linejoin="round" />
</svg>
    